<?xml version="1.0" encoding="utf-8"?>
<!-- Generator: Adobe Illustrator 19.0.0, SVG Export Plug-In . SVG Version: 6.00 Build 0)  -->
<svg version="1.2" baseProfile="tiny" id="Слой_1"
	 xmlns="http://www.w3.org/2000/svg" xmlns:xlink="http://www.w3.org/1999/xlink" x="0px" y="0px" viewBox="0 0 23 23"
	 xml:space="preserve">
<g id="XMLID_2_">
	<path id="XMLID_6_" fill="#076CA4" d="M0.5,12.5c3.5-0.6,7.9-1.3,12.3-3.2l5.7,4.8c-3.2,3.7-7.2,6.7-12,8.9L0.5,12.5"/>
	<path id="XMLID_5_" fill="#599A43" d="M12.6,7.8c1.7-0.9,3.4-1.9,5-3.2l4.4,2.4c-1,1.9-2.1,3.8-3.4,5.5L12.6,7.8"/>
	<path id="XMLID_4_" fill="#FFCE0C" d="M17.6,3.4c0.5-0.5,1-1,1.6-1.5l3.1,1.5c-0.3,0.7-0.5,1.3-0.8,2L17.6,3.4"/>
	<path id="XMLID_3_" fill="#D63928" d="M18.9,1c0.1-0.1,0.8-0.9,0.9-1l2.3,0.7c-0.1,0.2-0.4,1.4-0.5,1.6L18.9,1"/>
</g>
</svg>
