<?xml version="1.0" encoding="utf-8"?>
<!-- Generator: Adobe Illustrator 19.0.0, SVG Export Plug-In . SVG Version: 6.00 Build 0)  -->
<svg version="1.2" baseProfile="tiny" id="Слой_1"
	 xmlns="http://www.w3.org/2000/svg" xmlns:xlink="http://www.w3.org/1999/xlink" x="0px" y="0px" viewBox="0 0 13 17"
	 xml:space="preserve">
<g id="XMLID_6_">
	<path id="XMLID_4_" fill="#999999" d="M6.5,8.3c1.8,0,3.3-1.8,3.3-4c0-2.2-0.5-4-3.3-4S3.2,2,3.2,4.3C3.2,6.5,4.7,8.3,6.5,8.3z"/>
	<path id="XMLID_3_" fill="#010101" d="M0.2,14.5C0.2,14.4,0.2,14.5,0.2,14.5L0.2,14.5z"/>
	<path id="XMLID_2_" fill="#010101" d="M12.8,14.6C12.8,14.6,12.8,14.3,12.8,14.6L12.8,14.6z"/>
	<path id="XMLID_1_" fill="#999999" d="M12.8,14.3c-0.1-3.9-0.6-5-4.5-5.7c0,0-0.5,0.7-1.8,0.7S4.7,8.6,4.7,8.6
		c-3.9,0.7-4.4,1.8-4.5,5.6c0,0.3,0,0.3,0,0.3c0,0.1,0,0.2,0,0.4c0,0,0.9,1.9,6.3,1.9c5.4,0,6.3-1.9,6.3-1.9c0-0.1,0-0.2,0-0.3
		C12.8,14.6,12.8,14.6,12.8,14.3z"/>
</g>
<text transform="matrix(1 0 0 1 230.5 100.5)" font-family="'MyriadPro-Regular'" font-size="12px">h</text>
<text transform="matrix(1 0 0 1 237.1123 100.5)" font-family="'MyriadPro-Regular'" font-size="12px">t</text>
<text transform="matrix(1 0 0 1 241.084 100.5)" font-family="'MyriadPro-Regular'" font-size="12px">t</text>
<text transform="matrix(1 0 0 1 245.0557 100.5)" font-family="'MyriadPro-Regular'" font-size="12px">p</text>
<text transform="matrix(1 0 0 1 251.8838 100.5)" font-family="'MyriadPro-Regular'" font-size="12px">:</text>
<text transform="matrix(1 0 0 1 254.3672 100.5)" font-family="'MyriadPro-Regular'" font-size="12px">/</text>
<text transform="matrix(1 0 0 1 258.4834 100.5)" font-family="'MyriadPro-Regular'" font-size="12px">/</text>
<text transform="matrix(1 0 0 1 262.5996 100.5)" font-family="'MyriadPro-Regular'" font-size="12px">u</text>
<text transform="matrix(1 0 0 1 269.2109 100.5)" font-family="'MyriadPro-Regular'" font-size="12px">-</text>
<text transform="matrix(1 0 0 1 272.835 100.5)" font-family="'MyriadPro-Regular'" font-size="12px">w</text>
<text transform="matrix(1 0 0 1 281.5469 100.5)" font-family="'MyriadPro-Regular'" font-size="12px">d</text>
<text transform="matrix(1 0 0 1 288.3154 100.5)" font-family="'MyriadPro-Regular'" font-size="12px">f</text>
<text transform="matrix(1 0 0 1 0 -8088.9932)" font-family="'MyriadPro-Regular'" font-size="12px">l</text>
<text transform="matrix(1 0 0 1 294.4707 100.5)" font-family="'MyriadPro-Regular'" font-size="12px">.</text>
<text transform="matrix(1 0 0 1 296.9551 100.5)" font-family="'MyriadPro-Regular'" font-size="12px">r</text>
<text transform="matrix(1 0 0 1 300.8789 100.5)" font-family="'MyriadPro-Regular'" font-size="12px">u</text>
<text transform="matrix(1 0 0 1 307.4902 100.5)" font-family="'MyriadPro-Regular'" font-size="12px">/</text>
<text transform="matrix(1 0 0 1 311.6064 100.5)" font-family="'MyriadPro-Regular'" font-size="12px">t</text>
<text transform="matrix(1 0 0 1 315.5068 100.5)" font-family="'MyriadPro-Regular'" font-size="12px">e</text>
<text transform="matrix(1 0 0 1 321.5186 100.5)" font-family="'MyriadPro-Regular'" font-size="12px">s</text>
<text transform="matrix(1 0 0 1 326.2705 100.5)" font-family="'MyriadPro-Regular'" font-size="12px">t</text>
<text transform="matrix(1 0 0 1 330.2422 100.5)" font-family="'MyriadPro-Regular'" font-size="12px">2</text>
<text transform="matrix(1 0 0 1 336.3984 100.5)" font-family="'MyriadPro-Regular'" font-size="12px">-</text>
<text transform="matrix(1 0 0 1 340.082 100.5)" font-family="'MyriadPro-Regular'" font-size="12px">i</text>
<text transform="matrix(1 0 0 1 342.8896 100.5)" font-family="'MyriadPro-Regular'" font-size="12px">n</text>
<text transform="matrix(1 0 0 1 349.3945 100.5)" font-family="'MyriadPro-Regular'" font-size="12px">v</text>
<text transform="matrix(1 0 0 1 355.0459 100.5)" font-family="'MyriadPro-Regular'" font-size="12px">e</text>
<text transform="matrix(1 0 0 1 361.0576 100.5)" font-family="'MyriadPro-Regular'" font-size="12px">s</text>
<text transform="matrix(1 0 0 1 365.8096 100.5)" font-family="'MyriadPro-Regular'" font-size="12px">t</text>
<text transform="matrix(1 0 0 1 369.7813 100.5)" font-family="'MyriadPro-Regular'" font-size="12px">/</text>
<text transform="matrix(1 0 0 1 373.8975 100.5)" font-family="'MyriadPro-Regular'" font-size="12px">#</text>
<text transform="matrix(1 0 0 1 379.8613 100.5)" font-family="'MyriadPro-Regular'" font-size="12px">f</text>
<text transform="matrix(1 0 0 1 383.21 100.5)" font-family="'MyriadPro-Regular'" font-size="12px">o</text>
<text transform="matrix(1 0 0 1 389.7979 100.5)" font-family="'MyriadPro-Regular'" font-size="12px">o</text>
<text transform="matrix(1 0 0 1 396.3857 100.5)" font-family="'MyriadPro-Regular'" font-size="12px">t</text>
<text transform="matrix(1 0 0 1 400.2852 100.5)" font-family="'MyriadPro-Regular'" font-size="12px">e</text>
<text transform="matrix(1 0 0 1 406.2969 100.5)" font-family="'MyriadPro-Regular'" font-size="12px">r</text>
</svg>
