<?xml version="1.0" encoding="utf-8"?>
<!-- Generator: Adobe Illustrator 19.0.0, SVG Export Plug-In . SVG Version: 6.00 Build 0)  -->
<svg version="1.2" baseProfile="tiny" id="Слой_1"
	 xmlns="http://www.w3.org/2000/svg" xmlns:xlink="http://www.w3.org/1999/xlink" x="0px" y="0px" viewBox="0 0 22 34"
	 xml:space="preserve">
<path id="XMLID_2_" fill="#F05050" d="M11,0.2C5.1,0.2,0.3,4.9,0.3,10.8C0.3,16.7,11,34,11,34s10.7-17.3,10.7-23.2
	C21.7,4.9,16.9,0.2,11,0.2z M11,16.8c-3.3,0-6-2.7-6-6c0-3.3,2.7-6,6-6c3.3,0,6,2.7,6,6C17,14.1,14.3,16.8,11,16.8z"/>
<g>
	<path fill="#010101" d="M139.8,351.2C139.8,351.2,139.8,351.2,139.8,351.2C139.8,351.2,139.8,351.2,139.8,351.2
		c0-0.2-0.1-0.3-0.1-0.5c0,0,0,0,0-0.1c0-0.2-0.1-0.3-0.1-0.5c0,0,0,0,0-0.1c-0.1-0.2-0.1-0.3-0.2-0.4c0,0,0,0,0-0.1
		c-0.1-0.1-0.1-0.3-0.2-0.4c0,0,0,0,0,0c-0.3-0.6-0.8-1.1-1.3-1.5c0,0,0,0-0.1-0.1c-0.1-0.1-0.2-0.1-0.3-0.2c-0.1,0-0.1-0.1-0.2-0.1
		c-0.1-0.1-0.2-0.1-0.3-0.2c-0.1,0-0.2-0.1-0.2-0.1c-0.1,0-0.2-0.1-0.2-0.1c-0.1,0-0.2-0.1-0.3-0.1c-0.1,0-0.2-0.1-0.2-0.1
		c-0.1,0-0.2-0.1-0.3-0.1c-0.1,0-0.2-0.1-0.2-0.1c-0.1,0-0.2-0.1-0.4-0.1c-0.1,0-0.1,0-0.2,0c-0.1,0-0.3,0-0.4-0.1
		c-0.1,0-0.1,0-0.2,0c-0.2,0-0.4,0-0.6,0h0l-7.4-0.3h-18.9L20.2,346c-0.2,0-0.4,0-0.6,0c-0.1,0-0.1,0-0.2,0c-0.1,0-0.3,0-0.4,0.1
		c-0.1,0-0.1,0-0.2,0c-0.1,0-0.2,0.1-0.4,0.1c-0.1,0-0.2,0-0.2,0.1c-0.1,0-0.2,0.1-0.3,0.1c-0.1,0-0.2,0.1-0.2,0.1
		c-0.1,0-0.2,0.1-0.3,0.1c-0.1,0-0.2,0.1-0.2,0.1c-0.1,0-0.2,0.1-0.2,0.1c-0.1,0.1-0.2,0.1-0.3,0.2c-0.1,0-0.1,0.1-0.2,0.1
		c-0.1,0.1-0.2,0.1-0.3,0.2c0,0-0.1,0-0.1,0.1c-0.5,0.4-0.9,1-1.3,1.5c0,0,0,0,0,0c-0.1,0.1-0.2,0.3-0.2,0.4c0,0,0,0,0,0.1
		c-0.1,0.1-0.1,0.3-0.2,0.4c0,0,0,0,0,0.1c-0.1,0.2-0.1,0.3-0.1,0.5c0,0,0,0,0,0.1c0,0.2-0.1,0.3-0.1,0.5c0,0,0,0,0,0l0,0
		c-0.1,0.4-0.1,0.7-0.1,1.1v205.5c0,2.1,1,3.9,2.6,5c1,0.7,2.3,1.2,3.6,1.2h0h113.5h0c1.4,0,2.8-0.5,3.8-1.3
		c1.5-1.1,2.4-2.9,2.4-4.9V352.2C139.9,351.9,139.9,351.5,139.8,351.2z M97.2,355v7.1H56.8V355H97.2z M83.8,546.3
		c-0.4,3.5-3.3,6.2-6.8,6.2c-3.5,0-6.5-2.7-6.8-6.2c0-0.2,0-0.5,0-0.7c0-0.7,0.1-1.4,0.3-2c0.3-0.9,0.7-1.6,1.3-2.3
		c0.3-0.3,0.6-0.6,0.9-0.9c0.7-0.6,1.5-1,2.3-1.3c0.6-0.2,1.3-0.3,2-0.3c1.2,0,2.3,0.3,3.3,0.8c0.4,0.2,0.8,0.5,1.1,0.7
		c0.7,0.6,1.2,1.2,1.7,2c0.2,0.4,0.4,0.8,0.5,1.2c0.2,0.6,0.3,1.3,0.3,2C83.8,545.8,83.8,546.1,83.8,546.3z M117.7,525.6H36.2
		l0-150.1h81.5L117.7,525.6z"/>
</g>
</svg>
