<?xml version="1.0" encoding="utf-8"?>
<!-- Generator: Adobe Illustrator 19.0.0, SVG Export Plug-In . SVG Version: 6.00 Build 0)  -->
<svg version="1.2" baseProfile="tiny" id="Слой_1"
	 xmlns="http://www.w3.org/2000/svg" xmlns:xlink="http://www.w3.org/1999/xlink" x="0px" y="0px" viewBox="0 0 13 17"
	 xml:space="preserve">
<g id="XMLID_2_">
	<path id="XMLID_3_" fill="#999999" d="M11.2,0.9C11.2,0.9,11.2,0.9,11.2,0.9C11.2,0.9,11.2,0.9,11.2,0.9
		C11.2,0.9,11.2,0.9,11.2,0.9C11.2,0.8,11.2,0.8,11.2,0.9C11.2,0.8,11.2,0.8,11.2,0.9C11.2,0.8,11.2,0.8,11.2,0.9c0-0.1,0-0.1,0-0.1
		c0,0,0,0,0,0c0,0,0,0,0,0c0,0,0,0,0,0c0,0-0.1-0.1-0.1-0.1c0,0,0,0,0,0c0,0,0,0,0,0c0,0,0,0,0,0c0,0,0,0,0,0c0,0,0,0,0,0
		c0,0,0,0,0,0c0,0,0,0,0,0c0,0,0,0,0,0c0,0,0,0,0,0c0,0,0,0,0,0c0,0,0,0,0,0c0,0,0,0,0,0c0,0,0,0,0,0c0,0,0,0,0,0c0,0,0,0,0,0h0
		l-0.5,0H8.8l-6.5,0c0,0,0,0,0,0c0,0,0,0,0,0c0,0,0,0,0,0c0,0,0,0,0,0c0,0,0,0,0,0c0,0,0,0,0,0c0,0,0,0,0,0c0,0,0,0,0,0c0,0,0,0,0,0
		c0,0,0,0,0,0c0,0,0,0,0,0c0,0,0,0,0,0c0,0,0,0,0,0c0,0,0,0,0,0c0,0,0,0,0,0c0,0-0.1,0.1-0.1,0.1c0,0,0,0,0,0c0,0,0,0,0,0
		c0,0,0,0,0,0c0,0,0,0,0,0c0,0,0,0,0,0c0,0,0,0,0,0c0,0,0,0,0,0c0,0,0,0,0,0c0,0,0,0,0,0l0,0c0,0,0,0.1,0,0.1v15.3
		c0,0.2,0.1,0.3,0.2,0.4c0.1,0.1,0.2,0.1,0.3,0.1h0h8.4h0c0.1,0,0.2,0,0.3-0.1c0.1-0.1,0.2-0.2,0.2-0.4L11.2,0.9
		C11.2,0.9,11.2,0.9,11.2,0.9z M8,1.2v0.5H5V1.2H8z M7,15.4c0,0.3-0.2,0.5-0.5,0.5S6,15.6,6,15.4c0,0,0,0,0-0.1c0-0.1,0-0.1,0-0.2
		c0-0.1,0.1-0.1,0.1-0.2c0,0,0,0,0.1-0.1c0.1,0,0.1-0.1,0.2-0.1c0,0,0.1,0,0.2,0c0.1,0,0.2,0,0.2,0.1c0,0,0.1,0,0.1,0.1
		c0.1,0,0.1,0.1,0.1,0.2c0,0,0,0.1,0,0.1C7,15.2,7,15.3,7,15.4C7,15.3,7,15.4,7,15.4z M9.5,13.8H3.5l0-11.2h6.1L9.5,13.8z"/>
</g>
</svg>
