<?xml version="1.0" encoding="utf-8"?>
<!-- Generator: Adobe Illustrator 19.0.0, SVG Export Plug-In . SVG Version: 6.00 Build 0)  -->
<svg version="1.2" baseProfile="tiny" id="Слой_1"
	 xmlns="http://www.w3.org/2000/svg" xmlns:xlink="http://www.w3.org/1999/xlink" x="0px" y="0px" viewBox="0 0 22 34"
	 xml:space="preserve">
<g id="XMLID_9_">
	<path id="XMLID_10_" fill="#F05050" d="M20.4,1.4C20.4,1.4,20.4,1.4,20.4,1.4C20.4,1.4,20.4,1.4,20.4,1.4
		C20.4,1.4,20.4,1.4,20.4,1.4C20.4,1.4,20.4,1.4,20.4,1.4c0-0.1,0-0.1,0-0.2c0,0,0,0,0,0c0,0,0,0,0-0.1c0,0,0,0,0,0c0,0,0,0,0-0.1
		c0,0,0,0,0,0C20.3,1,20.2,1,20.1,0.9c0,0,0,0,0,0c0,0,0,0,0,0c0,0,0,0,0,0c0,0,0,0,0,0c0,0,0,0,0,0c0,0,0,0,0,0c0,0,0,0,0,0
		c0,0,0,0,0,0c0,0,0,0,0,0c0,0,0,0,0,0c0,0,0,0-0.1,0c0,0,0,0,0,0c0,0,0,0-0.1,0c0,0,0,0,0,0c0,0-0.1,0-0.1,0h0l-1.1,0h-2.8l-13.1,0
		c0,0-0.1,0-0.1,0c0,0,0,0,0,0c0,0,0,0-0.1,0c0,0,0,0,0,0c0,0,0,0-0.1,0c0,0,0,0,0,0c0,0,0,0,0,0c0,0,0,0,0,0c0,0,0,0,0,0
		c0,0,0,0,0,0c0,0,0,0,0,0c0,0,0,0,0,0c0,0,0,0,0,0c0,0,0,0,0,0c0,0,0,0,0,0C1.8,1,1.7,1,1.7,1.1c0,0,0,0,0,0c0,0,0,0,0,0.1
		c0,0,0,0,0,0c0,0,0,0,0,0.1c0,0,0,0,0,0c0,0,0,0,0,0.1c0,0,0,0,0,0c0,0,0,0,0,0.1c0,0,0,0,0,0l0,0c0,0.1,0,0.1,0,0.2v30.8
		c0,0.3,0.2,0.6,0.4,0.8c0.2,0.1,0.3,0.2,0.5,0.2h0h17h0c0.2,0,0.4-0.1,0.6-0.2c0.2-0.2,0.4-0.4,0.4-0.7V1.6
		C20.4,1.6,20.4,1.5,20.4,1.4z M14,2v1.1H8V2H14z M12,30.7c-0.1,0.5-0.5,0.9-1,0.9c-0.5,0-1-0.4-1-0.9c0,0,0-0.1,0-0.1
		c0-0.1,0-0.2,0-0.3c0-0.1,0.1-0.2,0.2-0.3c0-0.1,0.1-0.1,0.1-0.1c0.1-0.1,0.2-0.1,0.3-0.2c0.1,0,0.2,0,0.3,0c0.2,0,0.3,0,0.5,0.1
		c0.1,0,0.1,0.1,0.2,0.1c0.1,0.1,0.2,0.2,0.3,0.3c0,0.1,0.1,0.1,0.1,0.2c0,0.1,0,0.2,0,0.3C12,30.7,12,30.7,12,30.7z M17.1,27.6H4.9
		l0-22.5h12.2L17.1,27.6z"/>
</g>
</svg>
