<?xml version="1.0" encoding="utf-8"?>
<!-- Generator: Adobe Illustrator 19.0.0, SVG Export Plug-In . SVG Version: 6.00 Build 0)  -->
<svg version="1.2" baseProfile="tiny" id="Слой_1"
	 xmlns="http://www.w3.org/2000/svg" xmlns:xlink="http://www.w3.org/1999/xlink" x="0px" y="0px" viewBox="0 0 25 25"
	 xml:space="preserve">
<g id="XMLID_5_">
	<g id="XMLID_6_">
		<path id="XMLID_8_" fill="#F05050" d="M12.5,0.4C5.8,0.4,0.4,5.8,0.4,12.5s5.4,12.1,12.1,12.1s12.1-5.4,12.1-12.1
			S19.2,0.4,12.5,0.4z M12.5,22C7.2,22,3,17.8,3,12.5S7.2,3,12.5,3S22,7.2,22,12.5S17.8,22,12.5,22z"/>
		<path id="XMLID_1_" fill="#F05050" d="M18.8,12.1h-5.4V5.6c0-0.6-0.4-1-1-1s-1,0.4-1,1v7.5c0,0.6,0.4,1,1,1h6.4c0.6,0,1-0.4,1-1
			C19.8,12.6,19.4,12.1,18.8,12.1z"/>
	</g>
</g>
</svg>
